<svg width="39" height="35" viewBox="0 0 39 35" fill="none" xmlns="http://www.w3.org/2000/svg">
<path d="M16.41 18.1607C16.0585 20.1713 17.3939 22.0842 19.3918 22.4335C21.3903 22.7828 23.2949 21.4364 23.6464 19.4257C23.9979 17.415 22.6631 15.5023 20.6646 15.1529C18.6666 14.8036 16.7615 16.15 16.41 18.1607ZM29.0738 20.3745C28.7223 22.3852 30.0577 24.298 32.0556 24.6473C34.0541 24.9967 35.9587 23.6502 36.3102 21.6395C36.6617 19.6289 35.3269 17.7161 33.3284 17.3667C31.3304 17.0175 29.4253 18.3638 29.0738 20.3745ZM6.72802 20.2196C8.72653 20.569 10.6311 19.2226 10.9826 17.2119C11.3341 15.2012 9.99929 13.2884 8.00079 12.9391C6.00285 12.5898 4.09768 13.9361 3.74618 15.9468C3.39468 17.9575 4.73009 19.8704 6.72802 20.2196ZM33.5465 26.7837L29.9283 26.1512C27.9304 25.8019 26.0252 27.1483 25.6737 29.1589L25.3555 30.9791C25.1798 31.9842 25.8475 32.9409 26.8464 33.1155L34.0829 34.3805C35.0818 34.5552 36.0345 33.8817 36.2102 32.8767L36.5284 31.0565C36.8799 29.0458 35.5445 27.133 33.5465 26.7837ZM20.8827 24.5699L17.2645 23.9374C15.2666 23.5881 13.3614 24.9344 13.0099 26.9451L12.6917 28.7653C12.516 29.7703 13.1837 30.727 14.1826 30.9017L21.4191 32.1667C22.4181 32.3413 23.3707 31.6679 23.5464 30.6628L23.8646 28.8427C24.2161 26.832 22.8807 24.9191 20.8827 24.5699ZM8.21895 22.356L4.60072 21.7235C2.60278 21.3742 0.697616 22.7206 0.346115 24.7313L0.0279252 26.5514C-0.147776 27.5565 0.519878 28.5132 1.51885 28.6878L8.7553 29.9529C9.75427 30.1275 10.7069 29.4541 10.8826 28.449L11.2008 26.6289C11.5523 24.6182 10.2169 22.7053 8.21895 22.356ZM9.59174 3.83834L34.9193 8.26601L33.6466 15.5466C35.0418 15.7905 36.2069 16.5581 37.0165 17.5994L38.6808 8.0789C38.9527 6.52381 37.9567 5.04546 36.4603 4.78385L9.32356 0.0399225C7.82709 -0.221685 6.38865 0.831098 6.1168 2.38618L4.45246 11.9067C5.56732 11.2018 6.92426 10.8751 8.31898 11.1189L9.59174 3.83834Z" fill="#545AE8"/>
</svg>
