<svg width="28" height="28" viewBox="0 0 28 28" fill="none" xmlns="http://www.w3.org/2000/svg">
<g clip-path="url(#clip0_10_1027)">
<path d="M6.87474 0C6.3323 0 5.89258 0.43972 5.89258 0.982161V2.94643H7.85685V0.982161C7.85685 0.43972 7.41713 0 6.87474 0Z" fill="white"/>
<path d="M20.6247 0C20.0823 0 19.6426 0.43972 19.6426 0.982161V2.94643H21.6068V0.982161C21.6069 0.43972 21.1672 0 20.6247 0Z" fill="white"/>
<path d="M24.5536 2.94641H21.6071V6.875C21.6071 7.41744 21.1674 7.85716 20.625 7.85716C20.0825 7.85716 19.6428 7.41744 19.6428 6.875V2.94641H7.85712V6.875C7.85712 7.41744 7.4174 7.85716 6.87496 7.85716C6.33252 7.85716 5.8928 7.41744 5.8928 6.875V2.94641H2.94643C1.31916 2.94641 0 4.26557 0 5.89284V24.5536C0 26.1808 1.31916 27.5 2.94643 27.5H24.5536C26.1808 27.5 27.5 26.1808 27.5 24.5536V5.89284C27.5 4.26557 26.1808 2.94641 24.5536 2.94641ZM25.5357 24.5536C25.5357 25.096 25.096 25.5357 24.5535 25.5357H2.94643C2.40399 25.5357 1.96427 25.096 1.96427 24.5536V11.7857H25.5357V24.5536Z" fill="white"/>
<path d="M7.85756 13.75H5.8933C5.35085 13.75 4.91113 14.1897 4.91113 14.7322C4.91113 15.2746 5.35085 15.7143 5.8933 15.7143H7.85756C8.40001 15.7143 8.83973 15.2746 8.83973 14.7322C8.83973 14.1897 8.40001 13.75 7.85756 13.75Z" fill="white"/>
<path d="M14.7326 13.75H12.7683C12.2259 13.75 11.7861 14.1897 11.7861 14.7322C11.7861 15.2746 12.2259 15.7143 12.7683 15.7143H14.7326C15.275 15.7143 15.7147 15.2746 15.7147 14.7322C15.7147 14.1897 15.275 13.75 14.7326 13.75Z" fill="white"/>
<path d="M21.6076 13.75H19.6433C19.1009 13.75 18.6611 14.1897 18.6611 14.7322C18.6611 15.2746 19.1009 15.7143 19.6433 15.7143H21.6076C22.15 15.7143 22.5897 15.2746 22.5897 14.7322C22.5897 14.1897 22.1499 13.75 21.6076 13.75Z" fill="white"/>
<path d="M7.85756 17.6786H5.8933C5.35085 17.6786 4.91113 18.1183 4.91113 18.6608C4.91113 19.2032 5.35085 19.6429 5.8933 19.6429H7.85756C8.40001 19.6429 8.83973 19.2032 8.83973 18.6608C8.83973 18.1183 8.40001 17.6786 7.85756 17.6786Z" fill="white"/>
<path d="M14.7326 17.6786H12.7683C12.2259 17.6786 11.7861 18.1183 11.7861 18.6608C11.7861 19.2032 12.2259 19.6429 12.7683 19.6429H14.7326C15.275 19.6429 15.7147 19.2032 15.7147 18.6608C15.7147 18.1183 15.275 17.6786 14.7326 17.6786Z" fill="white"/>
<path d="M21.6076 17.6786H19.6433C19.1009 17.6786 18.6611 18.1183 18.6611 18.6608C18.6611 19.2032 19.1009 19.6429 19.6433 19.6429H21.6076C22.15 19.6429 22.5897 19.2032 22.5897 18.6608C22.5897 18.1183 22.1499 17.6786 21.6076 17.6786Z" fill="white"/>
<path d="M7.85756 21.6072H5.8933C5.35085 21.6072 4.91113 22.0469 4.91113 22.5893C4.91113 23.1318 5.35085 23.5714 5.8933 23.5714H7.85756C8.40001 23.5714 8.83973 23.1317 8.83973 22.5893C8.83973 22.0468 8.40001 21.6072 7.85756 21.6072Z" fill="white"/>
<path d="M14.7326 21.6072H12.7683C12.2259 21.6072 11.7861 22.0469 11.7861 22.5893C11.7861 23.1318 12.2259 23.5715 12.7683 23.5715H14.7326C15.275 23.5715 15.7147 23.1318 15.7147 22.5893C15.7147 22.0469 15.275 21.6072 14.7326 21.6072Z" fill="white"/>
<path d="M21.6076 21.6072H19.6433C19.1009 21.6072 18.6611 22.0469 18.6611 22.5893C18.6611 23.1318 19.1009 23.5715 19.6433 23.5715H21.6076C22.15 23.5715 22.5897 23.1318 22.5897 22.5893C22.5897 22.0469 22.1499 21.6072 21.6076 21.6072Z" fill="white"/>
</g>
<defs>
<clipPath id="clip0_10_1027">
<rect width="27.5" height="27.5" fill="white"/>
</clipPath>
</defs>
</svg>
