<svg width="36" height="36" viewBox="0 0 36 36" fill="none" xmlns="http://www.w3.org/2000/svg">
<rect width="36" height="36" rx="8" fill="#FEF6EE"/>
<path d="M11.9312 12.936L13.2062 17.185M18.8132 22.794L23.0642 24.069" stroke="#E05126" stroke-linecap="round" stroke-linejoin="round"/>
<path d="M17.6831 18.317L23.4421 12.558" stroke="#E05126" stroke-linecap="round" stroke-linejoin="round"/>
<path d="M10 11.5C10 11.697 10.0388 11.892 10.1142 12.074C10.1896 12.256 10.3001 12.4214 10.4393 12.5607C10.5786 12.6999 10.744 12.8104 10.926 12.8858C11.108 12.9612 11.303 13 11.5 13C11.697 13 11.892 12.9612 12.074 12.8858C12.256 12.8104 12.4214 12.6999 12.5607 12.5607C12.6999 12.4214 12.8104 12.256 12.8858 12.074C12.9612 11.892 13 11.697 13 11.5C13 11.303 12.9612 11.108 12.8858 10.926C12.8104 10.744 12.6999 10.5786 12.5607 10.4393C12.4214 10.3001 12.256 10.1896 12.074 10.1142C11.892 10.0388 11.697 10 11.5 10C11.303 10 11.108 10.0388 10.926 10.1142C10.744 10.1896 10.5786 10.3001 10.4393 10.4393C10.3001 10.5786 10.1896 10.744 10.1142 10.926C10.0388 11.108 10 11.303 10 11.5Z" stroke="#E05126" stroke-linecap="round" stroke-linejoin="round"/>
<path d="M23 11.5C23 11.8978 23.158 12.2794 23.4393 12.5607C23.7206 12.842 24.1022 13 24.5 13C24.8978 13 25.2794 12.842 25.5607 12.5607C25.842 12.2794 26 11.8978 26 11.5C26 11.1022 25.842 10.7206 25.5607 10.4393C25.2794 10.158 24.8978 10 24.5 10C24.1022 10 23.7206 10.158 23.4393 10.4393C23.158 10.7206 23 11.1022 23 11.5Z" stroke="#E05126" stroke-linecap="round" stroke-linejoin="round"/>
<path d="M23 24.5C23 24.8978 23.158 25.2794 23.4393 25.5607C23.7206 25.842 24.1022 26 24.5 26C24.8978 26 25.2794 25.842 25.5607 25.5607C25.842 25.2794 26 24.8978 26 24.5C26 24.1022 25.842 23.7206 25.5607 23.4393C25.2794 23.158 24.8978 23 24.5 23C24.1022 23 23.7206 23.158 23.4393 23.4393C23.158 23.7206 23 24.1022 23 24.5Z" stroke="#E05126" stroke-linecap="round" stroke-linejoin="round"/>
<path d="M10 21.5C10 22.6935 10.4741 23.8381 11.318 24.682C12.1619 25.5259 13.3065 26 14.5 26C15.6935 26 16.8381 25.5259 17.682 24.682C18.5259 23.8381 19 22.6935 19 21.5C19 20.3065 18.5259 19.1619 17.682 18.318C16.8381 17.4741 15.6935 17 14.5 17C13.3065 17 12.1619 17.4741 11.318 18.318C10.4741 19.1619 10 20.3065 10 21.5Z" stroke="#E05126" stroke-linecap="round" stroke-linejoin="round"/>
</svg>
