<svg width="37" height="37" viewBox="0 0 37 37" fill="none" xmlns="http://www.w3.org/2000/svg">
<rect width="37" height="37" rx="8" fill="#F4F3FE"/>
<path d="M10.4356 16.8808C10.4356 17.6381 10.7365 18.3645 11.2721 18.9001C11.8076 19.4356 12.534 19.7365 13.2914 19.7365C14.0488 19.7365 14.7751 19.4356 15.3107 18.9001C15.8462 18.3645 16.1471 17.6381 16.1471 16.8808C16.1471 16.1234 15.8462 15.397 15.3107 14.8614C14.7751 14.3259 14.0488 14.025 13.2914 14.025C12.534 14.025 11.8076 14.3259 11.2721 14.8614C10.7365 15.397 10.4356 16.1234 10.4356 16.8808Z" stroke="#6D3CEA" stroke-linecap="round" stroke-linejoin="round"/>
<path d="M9.00781 26.8758V25.4479C9.00781 24.6905 9.30868 23.9641 9.84424 23.4286C10.3798 22.893 11.1062 22.5922 11.8635 22.5922H14.7193C15.4767 22.5922 16.203 22.893 16.7386 23.4286C17.2741 23.9641 17.575 24.6905 17.575 25.4479V26.8758" stroke="#6D3CEA" stroke-linecap="round" stroke-linejoin="round"/>
<path d="M20.9248 11.8695C20.9248 12.4477 21.1545 13.0022 21.5634 13.4111C21.9722 13.8199 22.5267 14.0496 23.1049 14.0496C23.6832 14.0496 24.2377 13.8199 24.6465 13.4111C25.0554 13.0022 25.2851 12.4477 25.2851 11.8695C25.2851 11.2913 25.0554 10.7367 24.6465 10.3279C24.2377 9.91902 23.6832 9.68933 23.1049 9.68933C22.5267 9.68933 21.9722 9.91902 21.5634 10.3279C21.1545 10.7367 20.9248 11.2913 20.9248 11.8695Z" stroke="#6D3CEA" stroke-linecap="round" stroke-linejoin="round"/>
<path d="M19.8348 19.5C19.8348 19.0743 19.8348 18.9881 19.8348 18.4099C19.8348 17.8317 20.0645 17.2772 20.4733 16.8683C20.8822 16.4595 21.4367 16.2298 22.0149 16.2298H24.1951C24.7733 16.2298 25.3278 16.4595 25.7367 16.8683C26.1455 17.2772 26.3752 17.8317 26.3752 18.4099V19.5" stroke="#6D3CEA" stroke-linecap="round" stroke-linejoin="round"/>
<path d="M18.775 19.8L26.2416 19.8C26.7014 19.8 27.1422 19.9655 27.4673 20.2601C27.7924 20.5547 27.975 20.9543 27.975 21.3709L27.975 25.4291C27.975 25.8457 27.7924 26.2453 27.4673 26.5399C27.1422 26.8345 26.7014 27 26.2416 27L8.37498 27" stroke="#6D3CEA" stroke-linecap="round" stroke-linejoin="round"/>
</svg>
