<svg width="33" height="46" viewBox="0 0 33 46" fill="none" xmlns="http://www.w3.org/2000/svg">
<g clip-path="url(#clip0_10_961)">
<path d="M2.0625 0.5H18.75V12.2188C18.75 13.6597 19.8813 14.875 21.3125 14.875H32.5V43.8438C32.5 44.7837 31.7836 45.5 30.9375 45.5H2.0625C1.21639 45.5 0.5 44.7837 0.5 43.8438V2.15625C0.5 1.21629 1.21639 0.5 2.0625 0.5ZM19.9375 36.875C19.2608 36.875 18.75 37.4417 18.75 38.0938V39.5312C18.75 40.1833 19.2608 40.75 19.9375 40.75H26.8125C27.4892 40.75 28 40.1833 28 39.5312V38.0938C28 37.4417 27.4892 36.875 26.8125 36.875H19.9375ZM6.875 19.625C5.81846 19.625 5 20.5133 5 21.5625V30.1875C5 31.2367 5.81846 32.125 6.875 32.125H26.125C27.1815 32.125 28 31.2367 28 30.1875V21.5625C28 20.5133 27.1815 19.625 26.125 19.625H6.875ZM24.25 23.5V28.25H8.75V23.5H24.25ZM6.1875 11C5.5108 11 5 11.5667 5 12.2188V13.6562C5 14.3083 5.5108 14.875 6.1875 14.875H13.0625C13.7392 14.875 14.25 14.3083 14.25 13.6562V12.2188C14.25 11.5667 13.7392 11 13.0625 11H6.1875ZM22.5244 0.5C22.9363 0.500053 23.3305 0.667794 23.624 0.974609L32.0371 9.7793C32.3322 10.0878 32.5 10.5111 32.5 10.9521V11H22.5V0.5H22.5244ZM6.1875 5.25C5.5108 5.25 5 5.81668 5 6.46875V7.90625C5 8.55832 5.5108 9.125 6.1875 9.125H13.0625C13.7392 9.125 14.25 8.55832 14.25 7.90625V6.46875C14.25 5.81668 13.7392 5.25 13.0625 5.25H6.1875Z" fill="white" stroke="black"/>
</g>
<defs>
<clipPath id="clip0_10_961">
<rect width="33" height="46" fill="white"/>
</clipPath>
</defs>
</svg>
